<svg viewBox="0 0 24 24" xmlns="http://www.w3.org/2000/svg" xmlns:xlink="http://www.w3.org/1999/xlink" width="24.000000" height="24.000000" fill="none">
	<rect id="User" width="24.000000" height="24.000000" x="0.000000" y="0.000000" fill="rgb(255,255,255)" fill-opacity="0" />
	<path id="Vector" d="M15.5928 3.02719C14.6806 2.04234 13.4065 1.5 12.0003 1.5C10.5865 1.5 9.30824 2.03906 8.40027 3.01781C7.48246 4.00734 7.03527 5.35219 7.14027 6.80437C7.34839 9.66937 9.52855 12 12.0003 12C14.472 12 16.6484 9.66984 16.8598 6.80531C16.9662 5.36625 16.5162 4.02422 15.5928 3.02719ZM20.2503 22.5L3.75027 22.5C3.5343 22.5028 3.32042 22.4574 3.12419 22.3672C2.92796 22.2769 2.75432 22.1441 2.61589 21.9783C2.31121 21.6141 2.18839 21.1167 2.27933 20.6137C2.67496 18.4191 3.90964 16.5755 5.85027 15.2812C7.57433 14.1323 9.75824 13.5 12.0003 13.5C14.2423 13.5 16.4262 14.1328 18.1503 15.2812C20.0909 16.575 21.3256 18.4186 21.7212 20.6133C21.8121 21.1162 21.6893 21.6136 21.3846 21.9778C21.2463 22.1437 21.0726 22.2766 20.8764 22.367C20.6802 22.4573 20.4663 22.5028 20.2503 22.5Z" fill="rgb(35,35,33)" fill-rule="nonzero" />
	<path id="Vector" d="M12.0003 1.5C13.4065 1.5 14.6806 2.04234 15.5928 3.02719C16.5162 4.02422 16.9662 5.36625 16.8598 6.80531C16.6484 9.66984 14.472 12 12.0003 12C9.52855 12 7.34839 9.66937 7.14027 6.80437C7.03527 5.35219 7.48246 4.00734 8.40027 3.01781C9.30824 2.03906 10.5865 1.5 12.0003 1.5ZM10.3726 1.80517C10.8863 1.63297 11.4288 1.54688 12.0003 1.54688C12.5463 1.54688 13.0665 1.62688 13.5607 1.78688C13.6969 1.83098 13.8312 1.88116 13.9634 1.93741C14.2688 2.06725 14.5542 2.22545 14.8196 2.41201C15.0859 2.59915 15.3322 2.81483 15.5584 3.05904C15.7621 3.279 15.9419 3.51389 16.0977 3.76372C16.2915 4.07449 16.4483 4.40839 16.568 4.76539C16.6063 4.87958 16.6404 4.99484 16.6702 5.11119C16.8088 5.6514 16.8564 6.21496 16.8131 6.80186C16.7853 7.17817 16.7244 7.54577 16.6303 7.90469C16.5498 8.2117 16.445 8.51235 16.316 8.80663C16.1026 9.29324 15.8349 9.73596 15.5129 10.1348C15.4269 10.2413 15.3371 10.3446 15.2434 10.4448C14.8121 10.9061 14.3314 11.2663 13.8013 11.5253C13.7851 11.5332 13.7688 11.5411 13.7525 11.5488C13.3303 11.7491 12.8993 11.8749 12.4596 11.9264C12.3076 11.9442 12.1544 11.9531 12.0003 11.9531C11.8473 11.9531 11.6953 11.9444 11.5443 11.9268C11.1033 11.8756 10.6711 11.7496 10.2475 11.5487C10.2295 11.5402 10.2117 11.5316 10.1938 11.5229C9.66522 11.2639 9.18583 10.9044 8.75565 10.4445C8.65858 10.3408 8.56567 10.2336 8.47692 10.1232C8.15871 9.72711 7.89401 9.28807 7.6828 8.80605C7.55262 8.50895 7.44723 8.20541 7.36664 7.89542C7.27401 7.53912 7.21414 7.17432 7.18702 6.80099C7.14133 6.16905 7.19845 5.5657 7.35836 4.99096C7.38064 4.91089 7.40492 4.83136 7.43119 4.7524C7.56022 4.36456 7.7325 4.00483 7.94802 3.67321C8.09115 3.45297 8.25336 3.24513 8.43463 3.04969C8.64092 2.82732 8.86448 2.62874 9.1053 2.45395C9.38915 2.24794 9.69699 2.07498 10.0288 1.93507C10.1419 1.88737 10.2565 1.84407 10.3726 1.80517ZM3.75027 22.5L20.2503 22.5C20.4663 22.5028 20.6802 22.4573 20.8764 22.367C21.0726 22.2766 21.2463 22.1437 21.3846 21.9778C21.6893 21.6136 21.8121 21.1162 21.7212 20.6133C21.3256 18.4186 20.0909 16.575 18.1503 15.2812C16.4262 14.1328 14.2423 13.5 12.0003 13.5C9.75824 13.5 7.57433 14.1323 5.85027 15.2812C3.90964 16.5755 2.67496 18.4191 2.27933 20.6137C2.18839 21.1167 2.31121 21.6141 2.61589 21.9783C2.75432 22.1441 2.92796 22.2769 3.12419 22.3672C3.32042 22.4574 3.5343 22.5028 3.75027 22.5ZM20.2509 22.4531L3.75027 22.4531L3.74966 22.4531C3.64391 22.4545 3.54058 22.4445 3.43966 22.4231C3.33861 22.4017 3.23998 22.3689 3.14378 22.3246C3.04764 22.2804 2.95859 22.2269 2.87661 22.1642C2.79462 22.1015 2.71971 22.0295 2.65188 21.9482C2.60168 21.8882 2.55673 21.8251 2.51701 21.7588C2.43981 21.63 2.3824 21.4893 2.34476 21.3368C2.3299 21.2766 2.31847 21.2159 2.31047 21.1548C2.2877 20.9809 2.2927 20.8033 2.32546 20.6221C2.45106 19.9253 2.65946 19.2675 2.95067 18.6487C3.11541 18.2986 3.30664 17.961 3.52437 17.6359C3.56245 17.579 3.60126 17.5227 3.64078 17.4668C4.22693 16.6388 4.9721 15.9232 5.87628 15.3202C6.73423 14.7485 7.69016 14.31 8.74407 14.0048C9.04074 13.9189 9.33989 13.8451 9.64151 13.7833C10.4116 13.6257 11.1979 13.5469 12.0003 13.5469C12.7985 13.5469 13.5808 13.6249 14.3472 13.781C14.6528 13.8433 14.9559 13.9179 15.2565 14.005C16.3102 14.3103 17.2662 14.7487 18.1243 15.3203C19.0282 15.9229 19.7732 16.6381 20.3593 17.4657C20.399 17.5218 20.4379 17.5784 20.4762 17.6355C20.6939 17.9607 20.8852 18.2984 21.05 18.6485C21.3411 19.2673 21.5495 19.925 21.6751 20.6216C21.7079 20.803 21.7128 20.9807 21.69 21.1548C21.682 21.2158 21.6706 21.2763 21.6558 21.3363C21.6181 21.489 21.5606 21.6298 21.4833 21.7587C21.4437 21.8248 21.3988 21.8878 21.3487 21.9477C21.2808 22.0292 21.2057 22.1013 21.1236 22.1642C21.0417 22.2268 20.9528 22.2802 20.8568 22.3244C20.7608 22.3686 20.6624 22.4014 20.5615 22.4229C20.4604 22.4444 20.3568 22.4545 20.2509 22.4531Z" fill="rgb(35,35,33)" fill-rule="evenodd" />
</svg>
