<svg viewBox="0 0 32 32" xmlns="http://www.w3.org/2000/svg" xmlns:xlink="http://www.w3.org/1999/xlink" width="32.000000" height="32.000000" fill="none">
	<rect id="Add_circle" width="32.000000" height="32.000000" x="0.000000" y="0.000000" fill="rgb(255,255,255)" fill-opacity="0" />
	<path id="Vector" d="M16 3C8.83187 3 3 8.83187 3 16C3 23.1681 8.83187 29 16 29C23.1681 29 29 23.1681 29 16C29 8.83187 23.1681 3 16 3ZM21 17L17 17L17 21C17 21.2652 16.8946 21.5196 16.7071 21.7071C16.5196 21.8946 16.2652 22 16 22C15.7348 22 15.4804 21.8946 15.2929 21.7071C15.1054 21.5196 15 21.2652 15 21L15 17L11 17C10.7348 17 10.4804 16.8946 10.2929 16.7071C10.1054 16.5196 10 16.2652 10 16C10 15.7348 10.1054 15.4804 10.2929 15.2929C10.4804 15.1054 10.7348 15 11 15L15 15L15 11C15 10.7348 15.1054 10.4804 15.2929 10.2929C15.4804 10.1054 15.7348 10 16 10C16.2652 10 16.5196 10.1054 16.7071 10.2929C16.8946 10.4804 17 10.7348 17 11L17 15L21 15C21.2652 15 21.5196 15.1054 21.7071 15.2929C21.8946 15.4804 22 15.7348 22 16C22 16.2652 21.8946 16.5196 21.7071 16.7071C21.5196 16.8946 21.2652 17 21 17Z" fill="rgb(255,165,47)" fill-rule="nonzero" />
	<path id="Vector" d="M3 16C3 8.83187 8.83187 3 16 3C23.1681 3 29 8.83187 29 16C29 23.1681 23.1681 29 16 29C8.83187 29 3 23.1681 3 16ZM3.3462 18.785C3.14665 17.8786 3.04688 16.9503 3.04688 16C3.04688 15.0497 3.14665 14.1214 3.34619 13.215C3.51492 12.4487 3.75499 11.698 4.06639 10.963C4.37038 10.2455 4.73226 9.56592 5.15201 8.92417C5.63859 8.18027 6.20296 7.48725 6.8451 6.8451C7.4872 6.20299 8.18018 5.63866 8.92402 5.1521C9.56581 4.7323 10.2455 4.3704 10.963 4.06639C11.698 3.75499 12.4486 3.51492 13.215 3.34619C14.1214 3.14665 15.0497 3.04688 16 3.04688C16.9503 3.04688 17.8786 3.14665 18.785 3.3462C19.5514 3.51493 20.302 3.75499 21.037 4.06639C21.7542 4.37027 22.4336 4.73201 23.0752 5.15159C23.8193 5.63826 24.5126 6.20276 25.1549 6.8451C25.7963 7.48655 26.3602 8.17879 26.8464 8.92181C27.2668 9.56424 27.6292 10.2446 27.9336 10.963C28.2448 11.6975 28.4848 12.4477 28.6535 13.2136C28.8532 14.1204 28.9531 15.0492 28.9531 16C28.9531 16.9508 28.8532 17.8796 28.6535 18.7864C28.4848 19.5523 28.2448 20.3025 27.9336 21.037C27.6295 21.7547 27.2675 22.4345 26.8475 23.0765C26.361 23.8201 25.7968 24.5129 25.1549 25.1549C24.5132 25.7966 23.8207 26.3607 23.0773 26.847C22.4352 27.2672 21.7551 27.6294 21.037 27.9336C20.3025 28.2448 19.5523 28.4848 18.7864 28.6535C17.8796 28.8532 16.9508 28.9531 16 28.9531C15.0487 28.9531 14.1194 28.8531 13.2122 28.6532C12.4468 28.4845 11.697 28.2446 10.963 27.9336C10.2445 27.6292 9.56403 27.2667 8.92152 26.8462C8.17861 26.36 7.48646 25.7963 6.8451 25.1549C6.20272 24.5125 5.63818 23.8192 5.15149 23.0751C4.73195 22.4335 4.37025 21.7542 4.06639 21.037C3.75499 20.302 3.51493 19.5514 3.3462 18.785ZM17.0469 17L21 17C21.2652 17 21.5196 16.8946 21.7071 16.7071C21.8946 16.5196 22 16.2652 22 16C22 15.7348 21.8946 15.4804 21.7071 15.2929C21.5196 15.1054 21.2652 15 21 15L17 15L17 11C17 10.7348 16.8946 10.4804 16.7071 10.2929C16.5196 10.1054 16.2652 10 16 10C15.7348 10 15.4804 10.1054 15.2929 10.2929C15.1054 10.4804 15 10.7348 15 11L15 15L11 15C10.7348 15 10.4804 15.1054 10.2929 15.2929C10.1054 15.4804 10 15.7348 10 16C10 16.2652 10.1054 16.5196 10.2929 16.7071C10.4804 16.8946 10.7348 17 11 17L15 17L15 21C15 21.2652 15.1054 21.5196 15.2929 21.7071C15.4804 21.8946 15.7348 22 16 22C16.2652 22 16.5196 21.8946 16.7071 21.7071C16.8946 21.5196 17 21.2652 17 21L17 17L17.0469 17ZM17.0469 17.0469L17.0469 21C17.0469 21.0695 17.0402 21.1376 17.0269 21.2045C17.0136 21.2712 16.9937 21.3366 16.9672 21.4006C16.9406 21.4648 16.9083 21.5253 16.8705 21.582C16.8327 21.6385 16.7893 21.6912 16.7403 21.7403C16.6912 21.7893 16.6385 21.8327 16.5819 21.8705C16.5253 21.9083 16.4648 21.9406 16.4006 21.9672C16.3365 21.9937 16.271 22.0137 16.2043 22.027C16.1375 22.0402 16.0694 22.0469 16 22.0469C15.9306 22.0469 15.8625 22.0402 15.7957 22.027C15.729 22.0137 15.6635 21.9937 15.5994 21.9672C15.5352 21.9406 15.4748 21.9084 15.4182 21.8706C15.3616 21.8328 15.3088 21.7893 15.2597 21.7403C15.2107 21.6912 15.1672 21.6384 15.1294 21.5818C15.0916 21.5251 15.0594 21.4648 15.0328 21.4006C15.0063 21.3366 14.9864 21.2712 14.9731 21.2045C14.9598 21.1376 14.9531 21.0695 14.9531 21L14.9531 17.0469L11 17.0469C10.9305 17.0469 10.8624 17.0402 10.7956 17.0269C10.7289 17.0136 10.6635 16.9937 10.5994 16.9672C10.5352 16.9406 10.4747 16.9084 10.4181 16.8705C10.3616 16.8327 10.3088 16.7893 10.2597 16.7403C10.2106 16.6911 10.1671 16.6382 10.1293 16.5816C10.0915 16.525 10.0594 16.4647 10.0328 16.4006C10.0063 16.3365 9.98633 16.271 9.97305 16.2043C9.95977 16.1375 9.95312 16.0694 9.95312 16C9.95312 15.9306 9.95976 15.8626 9.97303 15.7958C9.98631 15.729 10.0062 15.6635 10.0328 15.5994C10.0593 15.5353 10.0915 15.475 10.1292 15.4185C10.1671 15.3618 10.2106 15.3089 10.2597 15.2597C10.3088 15.2107 10.3616 15.1673 10.4181 15.1295C10.4748 15.0916 10.5352 15.0594 10.5994 15.0328C10.6635 15.0063 10.7289 14.9863 10.7956 14.9731C10.8624 14.9598 10.9306 14.9531 11 14.9531L14.9531 14.9531L14.9531 11C14.9531 10.9305 14.9598 10.8624 14.9731 10.7956C14.9864 10.7289 15.0063 10.6635 15.0328 10.5994C15.0594 10.5352 15.0916 10.4748 15.1295 10.4181C15.1673 10.3616 15.2107 10.3088 15.2597 10.2597C15.3089 10.2106 15.3618 10.1671 15.4184 10.1293C15.475 10.0915 15.5353 10.0594 15.5994 10.0328C15.6635 10.0063 15.729 9.98633 15.7957 9.97305C15.8625 9.95977 15.9306 9.95312 16 9.95312C16.0694 9.95312 16.1374 9.95976 16.2042 9.97303C16.271 9.98631 16.3365 10.0062 16.4006 10.0328C16.4647 10.0594 16.525 10.0915 16.5816 10.1293C16.6382 10.1671 16.6911 10.2106 16.7403 10.2597C16.7893 10.3088 16.8327 10.3615 16.8705 10.4181C16.9083 10.4747 16.9406 10.5352 16.9672 10.5994C16.9937 10.6635 17.0137 10.7289 17.0269 10.7956C17.0402 10.8624 17.0469 10.9306 17.0469 11L17.0469 14.9531L21 14.9531C21.0695 14.9531 21.1376 14.9598 21.2045 14.9731C21.2712 14.9864 21.3366 15.0063 21.4006 15.0328C21.4647 15.0594 21.5251 15.0916 21.5817 15.1294C21.6383 15.1672 21.6912 15.2107 21.7403 15.2597C21.7893 15.3088 21.8328 15.3616 21.8706 15.4182C21.9084 15.4748 21.9406 15.5352 21.9672 15.5994C21.9937 15.6635 22.0137 15.729 22.027 15.7957C22.0402 15.8625 22.0469 15.9306 22.0469 16C22.0469 16.0694 22.0402 16.1375 22.027 16.2043C22.0137 16.271 21.9937 16.3365 21.9672 16.4006C21.9406 16.4648 21.9084 16.5252 21.8706 16.5818C21.8328 16.6384 21.7893 16.6912 21.7403 16.7403C21.6912 16.7893 21.6384 16.8328 21.5818 16.8706C21.5252 16.9084 21.4648 16.9406 21.4006 16.9672C21.3366 16.9937 21.2712 17.0136 21.2045 17.0269C21.1376 17.0402 21.0695 17.0469 21 17.0469L17.0469 17.0469Z" fill="rgb(255,165,47)" fill-rule="evenodd" />
</svg>
