<svg viewBox="0 0 28 28" xmlns="http://www.w3.org/2000/svg" xmlns:xlink="http://www.w3.org/1999/xlink" width="28.000000" height="28.000000" fill="none">
	<rect id="Search" width="28.000000" height="28.000000" x="0.000000" y="0.000000" fill="rgb(255,255,255)" fill-opacity="0" />
	<path id="Vector" d="M24.9752 23.0448L19.8297 17.8992C21.0685 16.25 21.7373 14.2426 21.735 12.18C21.735 6.91141 17.4486 2.625 12.18 2.625C6.91141 2.625 2.625 6.91141 2.625 12.18C2.625 17.4486 6.91141 21.735 12.18 21.735C14.2426 21.7373 16.25 21.0685 17.8992 19.8297L23.0448 24.9752C23.3052 25.2081 23.645 25.3324 23.9942 25.3226C24.3434 25.3128 24.6756 25.1697 24.9227 24.9227C25.1697 24.6756 25.3128 24.3434 25.3226 23.9942C25.3324 23.645 25.2081 23.3052 24.9752 23.0448ZM5.355 12.18C5.355 10.8301 5.75528 9.5106 6.50522 8.38823C7.25516 7.26587 8.32108 6.39109 9.56819 5.87452C10.8153 5.35795 12.1876 5.2228 13.5115 5.48614C14.8354 5.74949 16.0515 6.3995 17.006 7.354C17.9605 8.30849 18.6105 9.52459 18.8739 10.8485C19.1372 12.1724 19.002 13.5447 18.4855 14.7918C17.9689 16.0389 17.0941 17.1048 15.9718 17.8548C14.8494 18.6047 13.5299 19.005 12.18 19.005C10.3706 19.0028 8.63586 18.2831 7.35639 17.0036C6.07693 15.7241 5.35717 13.9894 5.355 12.18Z" fill="rgb(35,35,33)" fill-rule="nonzero" />
	<path id="Vector" d="M19.8297 17.8992C21.0685 16.25 21.7373 14.2426 21.735 12.18C21.735 6.91141 17.4486 2.625 12.18 2.625C6.91141 2.625 2.625 6.91141 2.625 12.18C2.625 17.4486 6.91141 21.735 12.18 21.735C14.2426 21.7373 16.25 21.0685 17.8992 19.8297L23.0448 24.9752C23.3052 25.2081 23.645 25.3324 23.9942 25.3226C24.3434 25.3128 24.6756 25.1697 24.9227 24.9227C25.1697 24.6756 25.3128 24.3434 25.3226 23.9942C25.3324 23.645 25.2081 23.3052 24.9752 23.0448L19.8297 17.8992ZM24.9411 23.077L19.7678 17.9036L19.7922 17.8711C20.1005 17.4606 20.3723 17.0311 20.6075 16.5824C20.8426 16.134 21.0412 15.6665 21.2033 15.1798C21.3651 14.6941 21.4864 14.2019 21.5672 13.703C21.6484 13.202 21.6887 12.6943 21.6881 12.1801C21.6881 11.4816 21.6147 10.7992 21.4679 10.1331C21.344 9.57145 21.168 9.02128 20.9398 8.48263C20.7163 7.95532 20.4503 7.45587 20.1417 6.9843C19.7848 6.43889 19.3709 5.93077 18.9001 5.45992C18.4286 4.9885 17.9199 4.57419 17.3737 4.21699C16.9027 3.90893 16.4039 3.64334 15.8774 3.42023C15.338 3.19172 14.7872 3.01555 14.2248 2.8917C13.5593 2.74515 12.8777 2.67188 12.18 2.67188C11.4824 2.67188 10.801 2.74511 10.1357 2.89159C9.57313 3.01545 9.02212 3.19166 8.48263 3.42023C7.95601 3.64336 7.45717 3.90897 6.98613 4.21707C6.44004 4.57425 5.93131 4.98854 5.45992 5.45992C4.98854 5.9313 4.57426 6.44003 4.21709 6.98611C3.90898 7.45716 3.64336 7.956 3.42023 8.48263C3.19171 9.02199 3.01553 9.57287 2.89168 10.1353C2.74514 10.8007 2.67188 11.4823 2.67188 12.18C2.67188 12.878 2.7452 13.5598 2.89184 14.2255C3.01568 14.7876 3.19181 15.3383 3.42023 15.8774C3.64342 16.4041 3.90912 16.9031 4.21733 17.3743C4.57445 17.9202 4.98865 18.4288 5.45992 18.9001C5.93081 19.371 6.43898 19.7849 6.98443 20.1418C7.45597 20.4504 7.95537 20.7164 8.48263 20.9398C9.02138 21.168 9.57163 21.3441 10.1334 21.4679C10.7994 21.6147 11.4816 21.6881 12.18 21.6881C12.6941 21.6887 13.2016 21.6484 13.7025 21.5673C14.2015 21.4865 14.694 21.3652 15.1798 21.2033C15.6665 21.0412 16.134 20.8426 16.5824 20.6075C17.0311 20.3723 17.4606 20.1005 17.8711 19.7922L17.9036 19.7678L23.077 24.9411C23.1396 24.9971 23.2063 25.0462 23.2771 25.0886C23.3481 25.1312 23.4232 25.1669 23.5023 25.1959C23.5817 25.2249 23.6623 25.2461 23.7443 25.2594C23.8259 25.2726 23.9087 25.2781 23.9929 25.2757C24.0775 25.2734 24.1603 25.2632 24.2415 25.2452C24.3221 25.2274 24.401 25.2018 24.4782 25.1686C24.5558 25.1351 24.6289 25.0952 24.6975 25.0486C24.7659 25.0021 24.83 24.9491 24.8895 24.8895C24.9491 24.83 25.0021 24.7659 25.0486 24.6975C25.0952 24.6289 25.1351 24.5558 25.1686 24.4782C25.2018 24.401 25.2274 24.3221 25.2452 24.2414C25.2632 24.1603 25.2734 24.0774 25.2757 23.9929C25.2781 23.9087 25.2726 23.8259 25.2594 23.7443C25.2461 23.6623 25.2249 23.5817 25.1959 23.5023C25.1669 23.4231 25.1311 23.348 25.0886 23.277C25.0462 23.2063 24.997 23.1396 24.9411 23.077ZM7.08834 7.56445C6.86249 7.8136 6.65512 8.07952 6.46624 8.36219C6.27745 8.64474 6.1112 8.93795 5.96748 9.24182C5.8238 9.54563 5.70265 9.86008 5.60403 10.1852C5.50549 10.51 5.43157 10.8385 5.38225 11.1706C5.33283 11.5034 5.30813 11.8399 5.30813 12.1801C5.30867 12.6358 5.35278 13.0829 5.44044 13.5213C5.52799 13.959 5.65898 14.3881 5.83342 14.8085C6.00793 15.2291 6.21931 15.6251 6.46755 15.9964C6.71589 16.3678 7.00113 16.7146 7.32325 17.0368C7.64528 17.3588 7.99196 17.6439 8.36329 17.8922C8.7347 18.1406 9.13076 18.352 9.55149 18.5266C9.97233 18.7012 10.4019 18.8323 10.8401 18.9198C11.278 19.0073 11.7247 19.0513 12.18 19.0519C12.5194 19.0519 12.8552 19.0273 13.1874 18.978C13.5202 18.9287 13.8493 18.8547 14.1748 18.756C14.4997 18.6574 14.8139 18.5364 15.1175 18.3928C15.4216 18.2491 15.715 18.0827 15.9978 17.8938C16.2802 17.7051 16.5459 17.4979 16.7948 17.2723C17.044 17.0465 17.2764 16.8023 17.492 16.5395C17.7073 16.2772 17.9012 16.0021 18.0738 15.7143C18.2469 15.4256 18.3986 15.1241 18.5288 14.8098C18.6586 14.4963 18.7644 14.1768 18.846 13.8512C18.9278 13.5247 18.9854 13.1922 19.0188 12.8536C19.0522 12.5148 19.0605 12.1772 19.0439 11.8409C19.0274 11.5058 18.986 11.172 18.9198 10.8394C18.8534 10.5053 18.7633 10.1796 18.6497 9.86244C18.5366 9.5468 18.4002 9.23953 18.2405 8.94062C18.0802 8.64085 17.9 8.35594 17.6997 8.0859C17.4995 7.81604 17.2793 7.56102 17.0392 7.32085C16.7985 7.08022 16.543 6.85967 16.2726 6.65921C16.003 6.45936 15.7186 6.27947 15.4194 6.11955C15.1196 5.95929 14.8113 5.82253 14.4947 5.70927C14.1784 5.59612 13.8537 5.50642 13.5206 5.44017C13.1873 5.37387 12.8528 5.33248 12.5171 5.31599C12.1814 5.29951 11.8445 5.30791 11.5064 5.34122C11.1681 5.37454 10.8358 5.43207 10.5096 5.5138C10.1838 5.59545 9.86399 5.70126 9.55025 5.83121C9.23644 5.9612 8.93545 6.11255 8.64725 6.28526C8.35886 6.4581 8.08328 6.65234 7.82053 6.86797C7.55802 7.0834 7.31396 7.31556 7.08834 7.56445ZM6.50522 8.38823C5.75528 9.5106 5.355 10.8301 5.355 12.18C5.35717 13.9894 6.07693 15.7241 7.35639 17.0036C8.63586 18.2831 10.3706 19.0028 12.18 19.005C13.5299 19.005 14.8494 18.6047 15.9718 17.8548C17.0941 17.1048 17.9689 16.0389 18.4855 14.7918C19.002 13.5447 19.1372 12.1724 18.8739 10.8485C18.6105 9.52459 17.9605 8.30849 17.006 7.354C16.0515 6.3995 14.8354 5.74949 13.5115 5.48614C12.1876 5.2228 10.8153 5.35795 9.56819 5.87452C8.32108 6.39109 7.25516 7.26587 6.50522 8.38823Z" fill="rgb(35,35,33)" fill-rule="evenodd" />
</svg>
