<svg viewBox="0 0 24 24" xmlns="http://www.w3.org/2000/svg" xmlns:xlink="http://www.w3.org/1999/xlink" width="24.000000" height="24.000000" fill="none">
	<rect id="ic:baseline-tiktok" width="24.000000" height="24.000000" x="0.000000" y="0.000000" fill="rgb(255,255,255)" fill-opacity="0" />
	<path id="Vector" d="M16.6002 5.82C15.9166 5.03962 15.5399 4.03743 15.5402 3L12.4502 3L12.4502 15.4C12.4263 16.071 12.143 16.7066 11.6599 17.1729C11.1768 17.6393 10.5316 17.8999 9.86016 17.9C8.44016 17.9 7.26016 16.74 7.26016 15.3C7.26016 13.58 8.92016 12.29 10.6302 12.82L10.6302 9.66C7.18016 9.2 4.16016 11.88 4.16016 15.3C4.16016 18.63 6.92016 21 9.85016 21C12.9902 21 15.5402 18.45 15.5402 15.3L15.5402 9.01C16.7932 9.90985 18.2975 10.3926 19.8402 10.39L19.8402 7.3C19.8402 7.3 17.9602 7.39 16.6002 5.82Z" fill="rgb(231,231,227)" fill-rule="nonzero" />
</svg>
